<?xml version="1.0" encoding="UTF-8" standalone="no"?>
<svg
   viewBox="0,0,256,256"
   width="13px"
   height="13px"
   fill-rule="nonzero"
   version="1.1"
   id="svg10"
   sodipodi:docname="toolWindowMybatis_dark.svg"
   inkscape:version="1.2.2 (b0a8486541, 2022-12-01)"
   xmlns:inkscape="http://www.inkscape.org/namespaces/inkscape"
   xmlns:sodipodi="http://sodipodi.sourceforge.net/DTD/sodipodi-0.dtd"
   xmlns="http://www.w3.org/2000/svg"
   xmlns:svg="http://www.w3.org/2000/svg">
  <defs
     id="defs14" />
  <sodipodi:namedview
     id="namedview12"
     pagecolor="#ffffff"
     bordercolor="#000000"
     borderopacity="0.25"
     inkscape:showpageshadow="2"
     inkscape:pageopacity="0.0"
     inkscape:pagecheckerboard="0"
     inkscape:deskcolor="#d1d1d1"
     showgrid="false"
     inkscape:zoom="79"
     inkscape:cx="6.5"
     inkscape:cy="6.4936709"
     inkscape:window-width="3440"
     inkscape:window-height="1384"
     inkscape:window-x="0"
     inkscape:window-y="0"
     inkscape:window-maximized="1"
     inkscape:current-layer="svg10" />
  <path
     d="m 236.36541,103.53213 -15.28135,-5.175701 c -1.88252,-25.421415 -12.97613,-41.086157 -33.19235,-46.601011 -23.60279,-6.433997 -41.4253,1.037107 -54.88312,12.312576 0.10322,-6.856704 -0.0442,-15.296103 -1.21406,-18.643354 -3.64707,-10.415309 -9.25532,-11.781734 -20.31943,-12.273254 -3.48979,-0.152372 -7.19586,-5.622989 -8.44432,-8.242791 l -4.443337,2.093875 -4.453171,2.08896 c 0.643891,1.371341 6.576538,13.428327 16.908288,13.88544 9.62888,0.422708 9.80091,0.924058 11.47208,5.696717 0.47677,1.405747 0.68321,6.419251 0.67338,12.27817 -1.63676,-2.329805 -3.62742,-4.708762 -6.10468,-6.945178 -9.94345,-8.984985 -22.668902,-7.210598 -34.966732,-5.490278 l -4.212326,0.575078 C 68.703027,50.300518 65.744077,42.829414 65.434419,41.979085 l -4.639949,1.622016 -4.654694,1.577779 c 1.867776,5.51977 9.073459,15.463219 23.032627,13.664256 l 4.305715,-0.589824 c 11.447501,-1.592525 20.481642,-2.860646 27.018852,3.047424 4.61046,4.16809 7.1123,8.999731 8.41483,12.288 C 102.71621,69.838438 86.265037,66.05865 86.265037,66.05865 l -6.920602,-1.592525 0.948634,7.038566 c 0.05407,0.407962 1.218969,8.336179 5.696717,18.997248 -16.2005,-2.516582 -29.161882,-5.239603 -29.35849,-5.28384 l -7.584154,-1.60727 1.784218,7.539917 c 0.206438,0.884736 5.323162,21.808744 24.07465,41.012424 0.201523,0.20644 0.452198,0.38831 0.658636,0.58983 -21.223833,14.84882 -48.041164,22.3789 -48.331161,22.45755 l -7.353139,2.02997 4.880793,5.85401 c 14.485095,17.38015 53.398733,43.23901 101.233461,43.23901 49.40267,0 90.13985,-37.27687 94.75031,-86.71396 0.0491,-0.54558 0.0688,-1.05676 0.11305,-1.59744 l 12.578,-3.16047 -11.6736,-5.98671 z M 185.30632,61.241754 c 4.35978,1.189478 13.88544,3.863347 20.19164,15.571353 -10.07125,-0.285081 -34.09674,-1.651507 -62.92931,-7.879065 11.37869,-8.483636 25.03803,-12.519015 42.73767,-7.692288 z m -69.64839,21.676032 c -2.75251,3.701145 -5.18553,7.289241 -7.33348,10.508697 -3.57335,-0.36864 -7.17619,-0.796262 -10.744623,-1.263206 -2.850816,-5.677056 -4.728422,-10.877338 -5.863833,-14.770176 6.070272,1.400832 14.991356,3.455385 23.941936,5.524685 z M 63.035802,96.503398 c 10.739712,2.039808 30.036787,5.421462 47.770828,7.053312 8.54753,0.79135 16.38236,4.86605 19.9508,10.39565 2.59031,4.00589 2.95403,8.78838 1.08626,14.21476 -1.59253,4.61537 -5.333,7.61364 -11.1231,8.91617 -11.91445,2.65912 -30.031873,-2.83116 -38.776014,-11.78665 C 71.725875,114.83218 65.975091,103.66976 63.035802,96.503398 Z M 210.96366,118.71027 c -4.1386,44.34985 -40.66345,77.79287 -84.96415,77.79287 -39.587017,0 -72.410723,-18.83013 -88.517833,-34.21962 10.538189,-3.59793 29.987635,-11.30988 46.207795,-23.33245 8.926003,5.38705 20.216218,8.64092 30.375938,8.64092 3.072,0 6.04078,-0.29491 8.80804,-0.91915 9.07837,-2.0398 15.56152,-7.47601 18.25996,-15.30593 2.86557,-8.30669 2.12829,-16.17592 -2.11845,-22.75246 -4.65469,-7.20568 -12.47969,-11.442584 -19.93605,-13.487308 1.51388,-2.187264 3.072,-4.330291 4.64978,-6.438912 10.97073,7.245005 44.77747,27.10241 87.27921,29.39781 -0.0246,0.22119 -0.0197,0.40796 -0.0442,0.62423 z m 0.0491,-20.304689 c -1.27795,6.871449 -8.79821,11.231229 -16.79032,9.741929 -7.99212,-1.48931 -13.43324,-8.267369 -12.15529,-15.133904 0.54559,-2.924544 2.26591,-5.352652 4.63012,-7.107379 l 6.9845,3.101491 c -1.99066,1.061684 -3.47013,2.840986 -3.88793,5.082317 -0.7766,4.16809 2.36422,8.247705 7.01891,9.117695 4.65469,0.86508 9.0538,-1.80879 9.8304,-5.976882 0,-0.01475 0,-0.02458 0.005,-0.03932 -0.44237,0.820839 -1.27796,1.395917 -2.27083,1.395917 -1.44015,0 -2.60997,-1.169817 -2.60997,-2.609971 0,-1.2288 0.86999,-2.216755 2.01523,-2.492006 l 7.34331,3.258777 c -0.0147,0.550503 -0.005,1.10592 -0.11305,1.661338 z"
     id="path2"
     style="font-family:none;mix-blend-mode:normal;fill:#ff091a;fill-rule:nonzero;stroke:none;stroke-width:4.9152;stroke-linecap:butt;stroke-linejoin:miter;stroke-miterlimit:10;stroke-dasharray:none;stroke-dashoffset:0;fill-opacity:1" />
</svg>
